<svg width="270" height="168" viewBox="0 0 270 168" fill="none" xmlns="http://www.w3.org/2000/svg">
<path d="M105 41L129 27V56L105 69V41Z" fill="#206EB8"/>
<path d="M139 27L163 41V69L139 56L139 27Z" fill="#206EB8"/>
<path d="M133.343 92.3432L110 78.5L133.343 64.6863L159 78.5L133.343 92.3432Z" fill="#272567"/>
<path d="M105.5 0L129 14.5L105.5 28L82 14.5L105.5 0Z" fill="#25B2DD"/>
<path d="M162.5 0L186 14.5L162.5 28L139 14.5L162.5 0Z" fill="#25B2DD"/>
<path d="M14.0312 152H4.65625V106.5H14.0312V152ZM30.4688 118.188L30.75 122.094C33.1667 119.073 36.4062 117.562 40.4688 117.562C44.0521 117.562 46.7188 118.615 48.4688 120.719C50.2188 122.823 51.1146 125.969 51.1562 130.156V152H42.125V130.375C42.125 128.458 41.7083 127.073 40.875 126.219C40.0417 125.344 38.6562 124.906 36.7188 124.906C34.1771 124.906 32.2708 125.99 31 128.156V152H21.9688V118.188H30.4688ZM70.6875 140.969L76.9688 118.188H86.4062L75 152H66.375L54.9688 118.188H64.4062L70.6875 140.969ZM105.531 152.625C100.573 152.625 96.5312 151.104 93.4062 148.062C90.3021 145.021 88.75 140.969 88.75 135.906V135.031C88.75 131.635 89.4062 128.604 90.7188 125.938C92.0312 123.25 93.8854 121.188 96.2812 119.75C98.6979 118.292 101.448 117.562 104.531 117.562C109.156 117.562 112.792 119.021 115.438 121.938C118.104 124.854 119.438 128.99 119.438 134.344V138.031H97.9062C98.1979 140.24 99.0729 142.01 100.531 143.344C102.01 144.677 103.875 145.344 106.125 145.344C109.604 145.344 112.323 144.083 114.281 141.562L118.719 146.531C117.365 148.448 115.531 149.948 113.219 151.031C110.906 152.094 108.344 152.625 105.531 152.625ZM104.5 124.875C102.708 124.875 101.25 125.479 100.125 126.688C99.0208 127.896 98.3125 129.625 98 131.875H110.562V131.156C110.521 129.156 109.979 127.615 108.938 126.531C107.896 125.427 106.417 124.875 104.5 124.875ZM132.906 118.188L133.188 122.094C135.604 119.073 138.844 117.562 142.906 117.562C146.49 117.562 149.156 118.615 150.906 120.719C152.656 122.823 153.552 125.969 153.594 130.156V152H144.562V130.375C144.562 128.458 144.146 127.073 143.312 126.219C142.479 125.344 141.094 124.906 139.156 124.906C136.615 124.906 134.708 125.99 133.438 128.156V152H124.406V118.188H132.906ZM171.281 109.875V118.188H177.062V124.812H171.281V141.688C171.281 142.938 171.521 143.833 172 144.375C172.479 144.917 173.396 145.188 174.75 145.188C175.75 145.188 176.635 145.115 177.406 144.969V151.812C175.635 152.354 173.812 152.625 171.938 152.625C165.604 152.625 162.375 149.427 162.25 143.031V124.812H157.312V118.188H162.25V109.875H171.281ZM179.75 134.781C179.75 131.427 180.396 128.438 181.688 125.812C182.979 123.188 184.833 121.156 187.25 119.719C189.688 118.281 192.51 117.562 195.719 117.562C200.281 117.562 204 118.958 206.875 121.75C209.771 124.542 211.385 128.333 211.719 133.125L211.781 135.438C211.781 140.625 210.333 144.792 207.438 147.938C204.542 151.062 200.656 152.625 195.781 152.625C190.906 152.625 187.01 151.062 184.094 147.938C181.198 144.812 179.75 140.562 179.75 135.188V134.781ZM188.781 135.438C188.781 138.646 189.385 141.104 190.594 142.812C191.802 144.5 193.531 145.344 195.781 145.344C197.969 145.344 199.677 144.51 200.906 142.844C202.135 141.156 202.75 138.469 202.75 134.781C202.75 131.635 202.135 129.198 200.906 127.469C199.677 125.74 197.948 124.875 195.719 124.875C193.51 124.875 191.802 125.74 190.594 127.469C189.385 129.177 188.781 131.833 188.781 135.438ZM236.344 126.656C235.115 126.49 234.031 126.406 233.094 126.406C229.677 126.406 227.438 127.562 226.375 129.875V152H217.344V118.188H225.875L226.125 122.219C227.938 119.115 230.448 117.562 233.656 117.562C234.656 117.562 235.594 117.698 236.469 117.969L236.344 126.656ZM253.906 139.219L260.156 118.188H269.844L256.25 157.25L255.5 159.031C253.479 163.448 250.146 165.656 245.5 165.656C244.188 165.656 242.854 165.458 241.5 165.062V158.219L242.875 158.25C244.583 158.25 245.854 157.99 246.688 157.469C247.542 156.948 248.208 156.083 248.688 154.875L249.75 152.094L237.906 118.188H247.625L253.906 139.219Z" fill="black"/>
</svg>
